<?xml version="1.0" encoding="utf-8"?>
<!-- Generator: Adobe Illustrator 28.0.0, SVG Export Plug-In . SVG Version: 6.00 Build 0)  -->
<svg version="1.1" id="Play_00000137823089696606829810000012953287988917201841_"
	 xmlns="http://www.w3.org/2000/svg" xmlns:xlink="http://www.w3.org/1999/xlink" x="0px" y="0px" viewBox="0 0 50 49"
	 style="enable-background:new 0 0 50 49;" xml:space="preserve">
<style type="text/css">
	.st0{fill:#201F20;}
</style>
<g id="Play">
	<g>
		<path class="st0" d="M24.99,0.04C11.66,0.04,0.83,10.88,0.83,24.2c0,13.32,10.84,24.16,24.16,24.16S49.15,37.52,49.15,24.2
			C49.15,10.88,38.31,0.04,24.99,0.04z M24.99,46.35c-12.21,0-22.15-9.93-22.15-22.14c0-12.21,9.93-22.15,22.15-22.15
			c12.21,0,22.15,9.93,22.15,22.15C47.13,36.41,37.2,46.35,24.99,46.35z M34.59,23.36L20.5,14.3c-0.31-0.2-0.71-0.21-1.03-0.04
			c-0.32,0.18-0.52,0.52-0.52,0.88v18.12c0,0.37,0.2,0.71,0.52,0.88c0.15,0.08,0.32,0.12,0.48,0.12c0.19,0,0.38-0.05,0.54-0.16
			l14.09-9.06c0.29-0.19,0.46-0.5,0.46-0.85C35.05,23.86,34.88,23.54,34.59,23.36z M20.96,31.42V16.99l11.22,7.22L20.96,31.42z"/>
	</g>
</g>
</svg>
