<?xml version="1.0" encoding="utf-8"?>
<!-- Generator: Adobe Illustrator 28.0.0, SVG Export Plug-In . SVG Version: 6.00 Build 0)  -->
<svg version="1.1" xmlns="http://www.w3.org/2000/svg" xmlns:xlink="http://www.w3.org/1999/xlink" x="0px" y="0px"
	 viewBox="0 0 528 115" style="enable-background:new 0 0 528 115;" xml:space="preserve">
<style type="text/css">
	.st0{enable-background:new    ;}
	.st1{fill:#FFFFFF;}
	.st2{fill:#D6F905;}
</style>
<g id="SMART_FRAME_Solutions_00000109025980049015708640000017396257777044029593_" class="st0">
	<g id="SMART_FRAME_Solutions">
		<g>
			<path class="st1" d="M185.85,25.27c-1.45-0.77-3.3-1.57-5.54-2.41c-1.94-0.74-3.35-1.36-4.24-1.88
				c-0.89-0.52-1.33-1.18-1.33-1.98c0-0.57,0.15-1.01,0.45-1.33c0.3-0.32,0.68-0.48,1.15-0.48c0.67,0,1.24,0.22,1.71,0.65
				c0.47,0.43,0.72,1.15,0.75,2.16h11.99c-0.13-3.64-1.48-6.47-4.04-8.48c-2.56-2.01-6.01-3.01-10.36-3.01
				c-2.58,0-4.89,0.42-6.95,1.25c-2.06,0.84-3.68,2.07-4.87,3.69c-1.19,1.62-1.78,3.59-1.78,5.89c-0.03,2.31,0.48,4.2,1.55,5.67
				c1.07,1.47,2.35,2.59,3.84,3.36c1.49,0.77,3.37,1.55,5.64,2.36c1.91,0.67,3.31,1.26,4.21,1.78c0.9,0.52,1.35,1.2,1.35,2.03
				c0,0.6-0.21,1.05-0.63,1.33c-0.42,0.28-0.93,0.43-1.53,0.43c-1.64,0-2.54-1.02-2.71-3.06H162.7c0.23,3.85,1.73,6.76,4.49,8.75
				c2.76,1.99,6.26,2.98,10.51,2.98c2.81,0,5.23-0.48,7.27-1.45c2.04-0.97,3.59-2.32,4.66-4.04c1.07-1.72,1.61-3.67,1.61-5.84
				c0-2.07-0.54-3.79-1.61-5.17C188.56,27.11,187.3,26.04,185.85,25.27z M216.62,30.44L208.8,9.12h-13.64v35.51h11.14V26.93
				l5.47,17.71h9.53l5.47-17.71v17.71h11.09V9.12h-13.59L216.62,30.44z M266.18,9.12h-12.84l-12.99,35.51h11.69l1.76-5.37h11.84
				l1.76,5.37h11.74L266.18,9.12z M256.5,30.89l3.21-9.88l3.21,9.88H256.5z M304,31.04c2.47-0.8,4.37-2.12,5.69-3.96
				c1.32-1.84,1.98-3.95,1.98-6.32c0-2.21-0.51-4.19-1.53-5.94c-1.02-1.76-2.55-3.14-4.59-4.16c-2.04-1.02-4.5-1.53-7.37-1.53
				h-16.55v35.51h11.14V31.89h0.05l6.67,12.74h12.24L304,31.04z M299.59,23.74c-0.54,0.49-1.34,0.73-2.41,0.73h-4.41v-6.02h4.41
				c1.04,0,1.83,0.27,2.38,0.8c0.55,0.54,0.83,1.27,0.83,2.21C300.39,22.49,300.12,23.26,299.59,23.74z M343.13,9.12h-29.9v8.83
				h9.33v26.69h11.14V17.95h9.43V9.12z M365.8,31.24h10.03v-8.38H365.8v-4.92h13.94V9.12h-25.08v35.51h11.14V31.24z M411.57,27.08
				c1.32-1.84,1.98-3.95,1.98-6.32c0-2.21-0.51-4.19-1.53-5.94c-1.02-1.76-2.55-3.14-4.59-4.16c-2.04-1.02-4.5-1.53-7.37-1.53
				h-16.55v35.51h11.14V31.89h0.05l6.67,12.74h12.24l-7.72-13.59C408.35,30.24,410.25,28.92,411.57,27.08z M401.47,23.74
				c-0.54,0.49-1.34,0.73-2.41,0.73h-4.41v-6.02h4.41c1.04,0,1.83,0.27,2.38,0.8c0.55,0.54,0.83,1.27,0.83,2.21
				C402.27,22.49,402,23.26,401.47,23.74z M427.6,9.12l-12.99,35.51h11.69l1.76-5.37h11.84l1.76,5.37h11.74L440.44,9.12H427.6z
				 M430.76,30.89l3.21-9.88l3.21,9.88H430.76z M477.36,30.44l-7.83-21.32h-13.64v35.51h11.14V26.93l5.47,17.71h9.53l5.47-17.71
				v17.71h11.09V9.12h-13.59L477.36,30.44z M527.27,18V9.12h-23.68v35.51h23.68v-8.88h-12.54v-5.02h11.04v-8.38h-11.04V18H527.27z
				 M182.76,87.19c-1.4-0.62-3.26-1.25-5.57-1.88c-1.91-0.53-3.39-1.01-4.44-1.43c-1.05-0.42-1.94-1.03-2.66-1.83
				c-0.72-0.8-1.08-1.84-1.08-3.11c0-1.77,0.6-3.15,1.81-4.14c1.2-0.99,2.76-1.48,4.66-1.48c2.04,0,3.68,0.51,4.92,1.53
				c1.24,1.02,1.94,2.2,2.11,3.54h5.02c-0.27-2.71-1.45-4.88-3.54-6.52c-2.09-1.64-4.77-2.46-8.05-2.46c-2.27,0-4.29,0.4-6.04,1.2
				c-1.76,0.8-3.12,1.94-4.09,3.41c-0.97,1.47-1.45,3.16-1.45,5.07c0,2.17,0.49,3.9,1.48,5.19c0.99,1.29,2.17,2.23,3.56,2.83
				c1.39,0.6,3.24,1.2,5.54,1.81c1.87,0.5,3.36,0.97,4.46,1.4c1.1,0.43,2.02,1.07,2.76,1.91c0.74,0.84,1.1,1.92,1.1,3.26
				c0,1.71-0.63,3.1-1.88,4.19c-1.25,1.09-2.97,1.63-5.14,1.63c-2.27,0-4.01-0.56-5.19-1.68c-1.19-1.12-1.86-2.5-2.03-4.14h-4.87
				c0.03,1.91,0.57,3.59,1.61,5.04c1.04,1.45,2.47,2.59,4.29,3.41c1.82,0.82,3.89,1.23,6.19,1.23c2.41,0,4.5-0.47,6.27-1.4
				c1.77-0.94,3.11-2.16,4.01-3.66s1.35-3.11,1.35-4.82c0-2.21-0.5-3.95-1.5-5.24C185.37,88.77,184.17,87.81,182.76,87.19z
				 M213.86,78.62c-2.11-1.15-4.46-1.73-7.07-1.73s-4.97,0.58-7.07,1.73c-2.11,1.15-3.77,2.81-4.99,4.97
				c-1.22,2.16-1.83,4.64-1.83,7.45c0,2.84,0.59,5.34,1.78,7.5c1.19,2.16,2.83,3.82,4.92,4.99c2.09,1.17,4.42,1.76,7,1.76
				c2.61,0,4.98-0.58,7.12-1.76c2.14-1.17,3.84-2.83,5.09-4.99c1.25-2.16,1.88-4.66,1.88-7.5c0-2.84-0.61-5.33-1.83-7.47
				C217.63,81.42,215.97,79.77,213.86,78.62z M214.69,96.65c-0.89,1.54-2.05,2.69-3.49,3.46c-1.44,0.77-2.98,1.15-4.61,1.15
				c-1.64,0-3.14-0.38-4.51-1.13c-1.37-0.75-2.47-1.9-3.29-3.44c-0.82-1.54-1.23-3.43-1.23-5.67c0-2.21,0.42-4.08,1.25-5.62
				c0.84-1.54,1.95-2.68,3.34-3.44c1.39-0.75,2.92-1.13,4.59-1.13c1.64,0,3.16,0.38,4.56,1.13c1.4,0.75,2.54,1.9,3.41,3.44
				c0.87,1.54,1.3,3.41,1.3,5.62S215.58,95.11,214.69,96.65z M226.7,104.83h4.56V67.71h-4.56V104.83z M258.86,92.44
				c0,2.88-0.7,5.07-2.11,6.57c-1.4,1.5-3.33,2.26-5.77,2.26c-2.37,0-4.25-0.73-5.62-2.18c-1.37-1.45-2.06-3.54-2.06-6.25v-15.5
				h-4.51v16.1c0,2.54,0.49,4.7,1.48,6.47c0.99,1.77,2.33,3.1,4.04,3.99c1.71,0.89,3.63,1.33,5.77,1.33c1.87,0,3.59-0.39,5.14-1.18
				s2.77-1.88,3.64-3.29v4.06h4.56V77.34h-4.56V92.44z M276.72,70.41h-4.56v6.92h-3.56v3.76h3.56v16.2c0,2.68,0.63,4.6,1.91,5.77
				c1.27,1.17,3.18,1.76,5.72,1.76h4.11v-3.86h-3.36c-1.4,0-2.39-0.28-2.96-0.83c-0.57-0.55-0.85-1.5-0.85-2.83V81.1h7.17v-3.76
				h-7.17V70.41z M291.76,66.65c-0.87,0-1.61,0.3-2.21,0.9c-0.6,0.6-0.9,1.34-0.9,2.21c0,0.87,0.3,1.61,0.9,2.21s1.34,0.9,2.21,0.9
				c0.84,0,1.55-0.3,2.13-0.9c0.58-0.6,0.88-1.34,0.88-2.21c0-0.87-0.29-1.61-0.88-2.21C293.31,66.95,292.6,66.65,291.76,66.65z
				 M289.41,104.83h4.56V77.34h-4.56V104.83z M321.01,78.62c-2.11-1.15-4.46-1.73-7.07-1.73c-2.61,0-4.97,0.58-7.07,1.73
				c-2.11,1.15-3.77,2.81-4.99,4.97c-1.22,2.16-1.83,4.64-1.83,7.45c0,2.84,0.59,5.34,1.78,7.5c1.19,2.16,2.83,3.82,4.92,4.99
				c2.09,1.17,4.42,1.76,7,1.76c2.61,0,4.98-0.58,7.12-1.76c2.14-1.17,3.84-2.83,5.09-4.99c1.25-2.16,1.88-4.66,1.88-7.5
				c0-2.84-0.61-5.33-1.83-7.47C324.78,81.42,323.11,79.77,321.01,78.62z M321.84,96.65c-0.89,1.54-2.05,2.69-3.49,3.46
				c-1.44,0.77-2.98,1.15-4.61,1.15c-1.64,0-3.14-0.38-4.51-1.13c-1.37-0.75-2.47-1.9-3.29-3.44c-0.82-1.54-1.23-3.43-1.23-5.67
				c0-2.21,0.42-4.08,1.25-5.62c0.84-1.54,1.95-2.68,3.34-3.44c1.39-0.75,2.92-1.13,4.59-1.13c1.64,0,3.16,0.38,4.56,1.13
				c1.4,0.75,2.54,1.9,3.41,3.44c0.87,1.54,1.3,3.41,1.3,5.62S322.72,95.11,321.84,96.65z M347.24,76.84
				c-1.87,0-3.59,0.38-5.14,1.15c-1.55,0.77-2.78,1.86-3.69,3.26v-3.91h-4.56v27.49h4.56v-15.2c0-2.88,0.71-5.07,2.13-6.57
				c1.42-1.5,3.34-2.26,5.74-2.26c2.37,0,4.25,0.73,5.62,2.18c1.37,1.45,2.06,3.55,2.06,6.3v15.55h4.51v-16.2
				c0-3.81-1.04-6.73-3.11-8.75C353.29,77.85,350.59,76.84,347.24,76.84z M381.15,90.96c-1.24-0.52-2.84-1.04-4.82-1.58
				c-1.57-0.43-2.8-0.83-3.69-1.18c-0.89-0.35-1.62-0.82-2.21-1.4c-0.59-0.58-0.88-1.33-0.88-2.23c0-1.14,0.48-2.06,1.45-2.76
				c0.97-0.7,2.27-1.05,3.91-1.05c1.77,0,3.19,0.43,4.24,1.3c1.05,0.87,1.63,2.02,1.73,3.46h4.56c-0.13-2.67-1.14-4.78-3.01-6.32
				c-1.87-1.54-4.33-2.31-7.37-2.31c-1.97,0-3.73,0.34-5.27,1.03c-1.54,0.69-2.73,1.61-3.56,2.78c-0.84,1.17-1.25,2.46-1.25,3.86
				c0,1.77,0.46,3.2,1.38,4.29c0.92,1.09,2.02,1.91,3.31,2.46c1.29,0.55,2.95,1.1,4.99,1.63c2.24,0.57,3.9,1.15,4.97,1.73
				c1.07,0.59,1.61,1.48,1.61,2.68c0,1.17-0.5,2.14-1.5,2.91c-1,0.77-2.37,1.15-4.11,1.15c-1.87,0-3.39-0.43-4.54-1.3
				c-1.15-0.87-1.8-1.99-1.93-3.36h-4.72c0.1,1.67,0.63,3.15,1.61,4.44c0.97,1.29,2.29,2.29,3.96,3.01
				c1.67,0.72,3.56,1.08,5.67,1.08c1.97,0,3.72-0.34,5.24-1.03c1.52-0.68,2.7-1.63,3.54-2.83c0.84-1.2,1.25-2.56,1.25-4.06
				c-0.03-1.67-0.49-3.03-1.38-4.06C383.45,92.25,382.39,91.47,381.15,90.96z"/>
		</g>
	</g>
</g>
<g id="Smart_Frame:_Sygnet_00000042010022071269256890000011090794630309297061_" class="st0">
	<g id="Smart_Frame:_Sygnet">
		<g>
			<path class="st2" d="M80.89,34.7L115.3,0L35.12,0L0.7,0l0,45.48c0,19,15.4,34.41,34.41,34.41L0.7,114.59l80.18,0l34.41,0l0-45.48
				C115.29,50.11,99.89,34.71,80.89,34.7z M80.59,79.88H35.41v-0.3V34.7h45.18V35V79.88z"/>
		</g>
	</g>
</g>
</svg>
